<?xml version="1.0" encoding="UTF-8"?>
<svg id="b" data-name="Layer 2" xmlns="http://www.w3.org/2000/svg" viewBox="0 0 997.17 210.71">
  <defs>
    <style>
      .d {
        fill: #eff2fa;
        stroke-width: 0px;
      }
    </style>
  </defs>
  <g id="c" data-name="Layer 1">
    <g>
      <path class="d" d="m89.35,90.31h-28.19c-.53,0-.95.43-.95.95v28.19c0,.53.43.95.95.95h28.19c.53,0,.95.43.95.95v28.19c0,.53.43.95.95.95h28.19c.53,0,.95-.43.95-.95v-28.19c0-.53.43-.95.95-.95h28.19c.53,0,.95-.43.95-.95v-28.19c0-.53-.43-.95-.95-.95h-28.19c-.53,0-.95-.43-.95-.95v-28.19c0-.53-.43-.95-.95-.95h-28.19c-.53,0-.95.43-.95.95v28.19c0,.53-.43.95-.95.95Z"/>
      <path class="d" d="m30.1,210.71h29.15c.53,0,.95-.43.95-.95v-28.19c0-.53-.43-.95-.95-.95h-28.19c-.53,0-.95-.43-.95-.95v-28.19c0-.53-.43-.95-.95-.95H.95c-.53,0-.95.43-.95.95v58.29c0,.53.43.95.95.95h29.15Z"/>
      <path class="d" d="m180.61,0h-29.15c-.53,0-.95.43-.95.95v28.19c0,.53.43.95.95.95h28.19c.53,0,.95.43.95.95v28.19c0,.53.43.95.95.95h28.19c.53,0,.95-.43.95-.95V.95c0-.53-.43-.95-.95-.95h-29.15Z"/>
      <g>
        <path class="d" d="m310.1,148.49l-25.44-73.73h-.54c.12,1.65.26,3.9.42,6.74.16,2.84.3,5.9.42,9.19.12,3.28.18,6.4.18,9.34v48.47h-13.17V60.13h20.37l24.48,70.53h.36l25.26-70.53h20.37v88.36h-13.84v-49.2c0-2.7.04-5.61.12-8.73.08-3.12.19-6.09.33-8.91.14-2.82.27-5.08.39-6.77h-.54l-26.35,73.61h-12.81Z"/>
        <path class="d" d="m410.46,80.32c5.96,0,11.08,1.23,15.35,3.69,4.27,2.46,7.55,5.94,9.85,10.46,2.3,4.51,3.45,9.91,3.45,16.2v7.62h-44.66c.16,6.49,1.9,11.48,5.23,14.99,3.32,3.51,7.99,5.26,13.99,5.26,4.27,0,8.11-.41,11.51-1.24,3.4-.83,6.92-2.04,10.55-3.66v11.54c-3.34,1.57-6.75,2.72-10.21,3.45-3.46.72-7.61,1.09-12.45,1.09-6.57,0-12.35-1.27-17.35-3.81-5-2.54-8.88-6.35-11.66-11.42-2.78-5.08-4.17-11.4-4.17-18.98s1.27-13.86,3.81-19.1c2.54-5.24,6.1-9.23,10.7-11.97,4.59-2.74,9.95-4.11,16.08-4.11Zm0,10.7c-4.47,0-8.09,1.45-10.85,4.35-2.76,2.9-4.38,7.15-4.87,12.75h30.4c-.04-3.34-.59-6.29-1.66-8.85-1.07-2.56-2.67-4.57-4.8-6.04-2.14-1.47-4.88-2.21-8.22-2.21Z"/>
        <path class="d" d="m476.81,149.7c-7.94,0-14.31-2.91-19.13-8.73-4.82-5.82-7.22-14.41-7.22-25.78s2.45-20.17,7.34-26.05c4.9-5.88,11.35-8.82,19.37-8.82,3.34,0,6.29.45,8.82,1.36s4.73,2.13,6.59,3.66c1.85,1.53,3.4,3.24,4.65,5.14h.67c-.2-1.25-.42-3.05-.67-5.41-.24-2.36-.36-4.54-.36-6.56v-24.05h14.26v94.04h-11.12l-2.54-9.07h-.6c-1.21,1.89-2.73,3.63-4.56,5.2s-4.02,2.81-6.56,3.72c-2.54.91-5.52,1.36-8.95,1.36Zm4.05-11.54c6.04,0,10.32-1.75,12.84-5.26,2.52-3.51,3.8-8.76,3.84-15.77v-1.87c0-7.49-1.2-13.24-3.6-17.22s-6.8-5.98-13.21-5.98c-5.12,0-9.02,2.06-11.69,6.16-2.68,4.11-4.02,9.85-4.02,17.22s1.34,13,4.02,16.89c2.68,3.89,6.62,5.83,11.82,5.83Z"/>
        <path class="d" d="m583.16,124.44c0,5.24-1.28,9.75-3.84,13.54-2.56,3.79-6.22,6.69-11,8.7-4.77,2.01-10.47,3.02-17.07,3.02-3.22,0-6.31-.18-9.25-.54-2.94-.36-5.71-.9-8.31-1.6-2.6-.71-4.99-1.56-7.16-2.57v-13.66c3.63,1.57,7.65,2.99,12.09,4.26,4.43,1.27,8.95,1.9,13.54,1.9,3.75,0,6.85-.49,9.31-1.48,2.46-.99,4.3-2.4,5.53-4.23,1.23-1.83,1.84-3.98,1.84-6.44,0-2.62-.71-4.82-2.12-6.62-1.41-1.79-3.54-3.45-6.38-4.99-2.84-1.53-6.42-3.16-10.73-4.9-2.9-1.13-5.66-2.44-8.28-3.93-2.62-1.49-4.96-3.24-7.01-5.26-2.05-2.01-3.69-4.41-4.9-7.19-1.21-2.78-1.81-6.02-1.81-9.73,0-5,1.21-9.28,3.63-12.84,2.42-3.57,5.81-6.29,10.18-8.19,4.37-1.89,9.48-2.84,15.32-2.84,4.63,0,8.99.49,13.08,1.48,4.09.99,8.11,2.35,12.06,4.08l-4.59,11.73c-3.67-1.49-7.19-2.69-10.58-3.6s-6.85-1.36-10.4-1.36c-3.06,0-5.66.46-7.8,1.39-2.14.93-3.76,2.24-4.87,3.93-1.11,1.69-1.66,3.67-1.66,5.92,0,2.62.63,4.8,1.9,6.53,1.27,1.73,3.24,3.32,5.92,4.77s6.13,3.06,10.37,4.83c4.88,2.02,9.01,4.13,12.42,6.35,3.4,2.22,6.01,4.87,7.83,7.95,1.81,3.08,2.72,6.94,2.72,11.57Z"/>
        <path class="d" d="m624.96,149.7c-6.33,0-11.81-1.22-16.44-3.66s-8.2-6.2-10.7-11.3c-2.5-5.1-3.75-11.55-3.75-19.37s1.37-14.79,4.11-19.94c2.74-5.16,6.53-8.96,11.36-11.42,4.83-2.46,10.41-3.69,16.74-3.69,3.99,0,7.61.39,10.85,1.18s5.99,1.74,8.25,2.87l-4.23,11.36c-2.46-.97-4.98-1.8-7.55-2.51-2.58-.7-5.06-1.06-7.43-1.06-3.91,0-7.16.88-9.76,2.63-2.6,1.75-4.53,4.34-5.8,7.77-1.27,3.43-1.9,7.66-1.9,12.69s.64,9.06,1.93,12.42c1.29,3.36,3.2,5.9,5.74,7.61,2.54,1.71,5.66,2.57,9.37,2.57s6.95-.44,9.85-1.33c2.9-.89,5.64-2.03,8.22-3.45v12.33c-2.54,1.45-5.26,2.53-8.16,3.23-2.9.7-6.47,1.06-10.7,1.06Z"/>
        <path class="d" d="m684.96,80.32c8.46,0,14.86,1.87,19.19,5.62s6.5,9.59,6.5,17.53v45.03h-10.09l-2.78-9.49h-.48c-1.89,2.42-3.85,4.42-5.86,6.01-2.01,1.59-4.33,2.77-6.95,3.54s-5.82,1.15-9.61,1.15c-4.03,0-7.62-.74-10.76-2.21-3.14-1.47-5.61-3.72-7.4-6.74-1.79-3.02-2.69-6.85-2.69-11.48,0-6.89,2.57-12.07,7.71-15.53,5.14-3.46,12.9-5.38,23.3-5.74l11.54-.42v-3.5c0-4.59-1.07-7.88-3.2-9.85-2.14-1.97-5.16-2.96-9.07-2.96-3.34,0-6.59.48-9.73,1.45-3.14.97-6.21,2.14-9.19,3.51l-4.65-10.03c3.3-1.73,7.04-3.14,11.21-4.23,4.17-1.09,8.51-1.63,13.02-1.63Zm11.54,36.2l-8.58.36c-7.09.24-12.07,1.44-14.93,3.6-2.86,2.16-4.29,5.13-4.29,8.91,0,3.3.99,5.71,2.96,7.22,1.97,1.51,4.57,2.27,7.8,2.27,4.92,0,8.98-1.4,12.21-4.2,3.22-2.8,4.83-6.9,4.83-12.3v-5.86Z"/>
        <path class="d" d="m764.66,80.32c7.53,0,13.41,1.94,17.62,5.83,4.21,3.89,6.32,10.12,6.32,18.71v43.64h-14.2v-40.98c0-5.16-1.07-9.04-3.2-11.63-2.14-2.6-5.44-3.9-9.91-3.9-6.49,0-10.99,1.99-13.51,5.98-2.52,3.99-3.78,9.75-3.78,17.29v33.24h-14.26v-66.9h11.12l2,9.07h.79c1.45-2.34,3.25-4.26,5.41-5.77s4.57-2.65,7.25-3.41c2.68-.77,5.47-1.15,8.37-1.15Z"/>
        <path class="d" d="m842.54,80.32c7.53,0,13.41,1.94,17.62,5.83,4.21,3.89,6.32,10.12,6.32,18.71v43.64h-14.2v-40.98c0-5.16-1.07-9.04-3.2-11.63-2.14-2.6-5.44-3.9-9.91-3.9-6.49,0-10.99,1.99-13.51,5.98-2.52,3.99-3.78,9.75-3.78,17.29v33.24h-14.26v-66.9h11.12l2,9.07h.79c1.45-2.34,3.25-4.26,5.41-5.77s4.57-2.65,7.25-3.41c2.68-.77,5.47-1.15,8.37-1.15Z"/>
        <path class="d" d="m912.21,80.32c5.96,0,11.08,1.23,15.35,3.69,4.27,2.46,7.55,5.94,9.85,10.46,2.3,4.51,3.45,9.91,3.45,16.2v7.62h-44.66c.16,6.49,1.9,11.48,5.23,14.99,3.32,3.51,7.99,5.26,13.99,5.26,4.27,0,8.11-.41,11.51-1.24,3.4-.83,6.92-2.04,10.55-3.66v11.54c-3.34,1.57-6.75,2.72-10.21,3.45-3.46.72-7.61,1.09-12.45,1.09-6.57,0-12.35-1.27-17.35-3.81-5-2.54-8.88-6.35-11.66-11.42-2.78-5.08-4.17-11.4-4.17-18.98s1.27-13.86,3.81-19.1c2.54-5.24,6.1-9.23,10.7-11.97,4.59-2.74,9.95-4.11,16.08-4.11Zm0,10.7c-4.47,0-8.09,1.45-10.85,4.35-2.76,2.9-4.38,7.15-4.87,12.75h30.4c-.04-3.34-.59-6.29-1.66-8.85-1.07-2.56-2.67-4.57-4.8-6.04-2.14-1.47-4.88-2.21-8.22-2.21Z"/>
        <path class="d" d="m990.04,80.32c1.13,0,2.36.06,3.69.18,1.33.12,2.48.28,3.45.48l-1.33,13.36c-.85-.24-1.88-.43-3.11-.57-1.23-.14-2.33-.21-3.29-.21-2.54,0-4.96.42-7.25,1.27-2.3.85-4.33,2.11-6.1,3.78-1.77,1.67-3.16,3.76-4.17,6.26-1.01,2.5-1.51,5.4-1.51,8.7v34.93h-14.32v-66.9h11.18l1.93,11.79h.67c1.33-2.38,2.98-4.55,4.96-6.53s4.24-3.56,6.8-4.74c2.56-1.19,5.37-1.78,8.43-1.78Z"/>
      </g>
    </g>
  </g>
</svg>